<svg fill="none" height="34" viewBox="0 0 172 34" width="172" xmlns="http://www.w3.org/2000/svg" xmlns:xlink="http://www.w3.org/1999/xlink"><radialGradient id="a" cx="0" cy="0" gradientTransform="matrix(28.1438 0 0 28.0484 32.3411 7.53305)" gradientUnits="userSpaceOnUse" r="1"><stop offset="0" stop-color="#fff"/><stop offset=".06" stop-color="#ebf9fe"/><stop offset=".18" stop-color="#b6e8fa"/><stop offset=".36" stop-color="#60cdf5"/><stop offset=".54" stop-color="#00aeef"/><stop offset="1" stop-color="#002f54"/></radialGradient><mask id="b" height="34" maskUnits="userSpaceOnUse" width="34" x="0" y="0"><path clip-rule="evenodd" d="m0 17.0279c0 1.5945.22957 3.1358.648909 4.5978.024876.0992.048331.1969.077471.2947.006397.0191.014215.0354.022033.0545 2.122987 6.8418 8.529637 11.8263 16.082687 11.8263 3.4933 0 6.7421-1.0667 9.4351-2.89.0271-.0148.0541-.029.0789-.046.16-.1084.3149-.2224.4649-.3414 3.0974-2.2808 5.3839-5.5916 6.3469-9.4223.054-.1763.1009-.3555.1407-.5369.0086-.0425.0114-.085.0143-.1275.2281-1.1007.3496-2.2426.3496-3.4092 0-2.2638-.4449-4.4611-1.3227-6.5287-.1684-.3967-.6275-.58225-1.0256-.4144-.398.1672-.5849.6255-.4165 1.0222.7961 1.8742 1.1991 3.8667 1.1991 5.9209 0 1.2587-.1571 2.482-.4478 3.6522-.231.7388-.6382 1.4223-1.199 2.0421.0135-.2649.0234-.5327.0234-.8054.0064-2.9927-.8244-6.1533-2.3646-9.1247 1.1294-.9669 1.8486-2.1604 2.0967-3.49636.0789-.42358-.2026-.83016-.6276-.90808-.4243-.08004-.8337.20117-.9119.62546-.1635.88329-.6233 1.69218-1.344 2.38208-.2239-.3697-.4563-.7345-.7029-1.095-1.3739-2.00746-3.0065-3.74429-4.7933-5.12979 2.3583.15442 4.5381.72392 6.2944 1.70142.275.15654.641.15158.8976-.06234.3327-.27483.3767-.76854.0995-1.10004-2.5217-3.51616-6.8835-5.454872-12.2852-5.454872-9.28016 0-16.8311 7.524622-16.8311 16.773322m17.2242-14.48611c-.7079-.27059-1.4087-.47955-2.0982-.62971.5537-.06163 1.1138-.09634 1.6831-.09704.2665.00354.5935.323.9368.94066-.1735-.07437-.3476-.14733-.5217-.21391m1.6965-.61271c.6354.07012 1.312.17921 2.0086.34141-.4364.23305-.8885.52559-1.3476.8755-.2047-.46041-.425-.867-.661-1.21691m2.6369 1.67025c.5373-.34638 1.0313-.58438 1.4449-.68284.7854.3138 1.5636.714 2.3021 1.22046-1.1841-.29396-2.4435-.47387-3.747-.53762m-12.70102 2.05558c.17413-.80892.6617-1.53283 1.41792-2.13067 1.8266-.544 3.9525-.41295 6.187.40234-.9403.16291-1.8799.37896-2.8081.65804-1.7271.51637-3.3561 1.22187-4.84871 2.08037-.03411-.34141-.01776-.68.05189-1.01008m-1.4684-.56667c-.02203.07934-.04477.15867-.06183.24084-.1585.73596-.14002 1.48962.04691 2.23833-1.68518 1.15742-3.15002 2.52729-4.31564 4.06579-.35608.4683-.67379.9464-.96164 1.4273.8664-3.19455 2.75414-5.97405 5.2922-7.97226m3.36682 4.97106c-.6475-.60347-1.13935-1.23389-1.47055-1.86643 1.46695-.87975 3.09035-1.59658 4.81955-2.11438 1.0284-.30812 2.0697-.53691 3.1074-.69487-1.499 1.67379-2.9958 3.80021-4.3668 6.20148-.7833-.4512-1.4869-.9626-2.0896-1.5258m6.6895 3.2513c-1.1329-.2409-2.2097-.5872-3.2012-1.0214 1.4606-2.5465 3.0583-4.76075 4.6341-6.40691.4925 1.9302.9054 4.52621 1.0796 7.74491-.8295-.0333-1.6738-.1374-2.5125-.3166m3.1038-7.14781c1.7804 1.32033 3.4116 3.02387 4.7762 5.01641.2587.3783.5025.7622.7349 1.1496-1.2516.7204-2.8323 1.1511-4.5388 1.2722-.145-2.6924-.4648-5.28276-.9723-7.43821m-15.6662 14.49891c-1.3298-1.2255-2.24453-2.5217-2.71007-3.8095.36888-1.4435 1.08318-2.8914 2.13508-4.279.99717-1.3161 2.23742-2.5011 3.66033-3.51971.41081.7395.9858 1.46131 1.71715 2.14551.69581.6496 1.50751 1.2382 2.40661 1.7532-.2474.4682-.4904.9442-.7264 1.428-1.3888 2.8361-2.52315 5.8791-3.18911 8.6409-1.23457-.6949-2.34617-1.4868-3.29359-2.3594m10.1523 4.8953c-1.9389-.4144-3.7712-1.0278-5.43012-1.8049.54442-2.4423 1.55862-5.4024 3.16712-8.6877.2331-.476.4719-.9435.7157-1.4032 1.1244.5029 2.3469.9024 3.6297 1.1751.9752.2083 1.9489.3216 2.9041.3542.0171.5851.0256 1.1886.0256 1.8105 0 3.6734-.2949 6.7235-.72 9.1056-1.4008-.0602-2.8422-.2415-4.2921-.5496m6.5772-8.556c0-.6092-.0085-1.2212-.0263-1.831 1.9467-.129 3.7506-.6333 5.2275-1.4798 1.3661 2.696 2.1003 5.5392 2.0939 8.2231-.0015.7777-.0683 1.5172-.1919 2.2149-.7037.43-1.5125.8019-2.4237 1.1079-1.6162.5419-3.4378.8379-5.3682.8875.4648-2.7738.6887-5.9932.6887-9.1226m-19.45947 4.1898c-.13362-.5072-.21749-1.0236-.2516-1.5484.5224.7409 1.15993 1.4662 1.9183 2.1646 1.145 1.0547 2.50466 1.9982 4.01996 2.8072-.30917 1.7255-.39659 3.288-.20043 4.5489-2.61198-1.9692-4.56581-4.7551-5.48623-7.9723m8.07187 9.5504c-.0461-.0375-.0959-.0729-.1513-.0998-.86999-.4222-1.2211-2.3538-.76835-5.3083 1.67025.748 3.49045 1.3409 5.40235 1.7482 1.4492.3088 2.8934.4994 4.305.573-.6923 2.9991-1.58 4.573-2.1671 4.573-.0384 0-.0739.0064-.1101.0114-2.3299-.0156-4.5374-.5497-6.5105-1.4975m10.4018-3.055c2.2111-.0269 4.3085-.3492 6.1643-.9711.4676-.1573.9126-.3301 1.3355-.5192-.516 1.258-1.2758 2.3056-2.2631 3.0862-1.9517 1.4322-4.2545 2.414-6.7542 2.7894.6262-1.0774 1.1308-2.5982 1.5175-4.3853" fill="#fff" fill-rule="evenodd"/></mask><path clip-rule="evenodd" d="m0 17.0279c0 1.5945.22957 3.1358.648909 4.5978.024876.0992.048331.1969.077471.2947.006397.0191.014215.0354.022033.0545 2.122987 6.8418 8.529637 11.8263 16.082687 11.8263 3.4933 0 6.7421-1.0667 9.4351-2.89.0271-.0148.0541-.029.0789-.046.16-.1084.3149-.2224.4649-.3414 3.0974-2.2808 5.3839-5.5916 6.3469-9.4223.054-.1763.1009-.3555.1407-.5369.0086-.0425.0114-.085.0143-.1275.2281-1.1007.3496-2.2426.3496-3.4092 0-2.2638-.4449-4.4611-1.3227-6.5287-.1684-.3967-.6275-.58225-1.0256-.4144-.398.1672-.5849.6255-.4165 1.0222.7961 1.8742 1.1991 3.8667 1.1991 5.9209 0 1.2587-.1571 2.482-.4478 3.6522-.231.7388-.6382 1.4223-1.199 2.0421.0135-.2649.0234-.5327.0234-.8054.0064-2.9927-.8244-6.1533-2.3646-9.1247 1.1294-.9669 1.8486-2.1604 2.0967-3.49636.0789-.42358-.2026-.83016-.6276-.90808-.4243-.08004-.8337.20117-.9119.62546-.1635.88329-.6233 1.69218-1.344 2.38208-.2239-.3697-.4563-.7345-.7029-1.095-1.3739-2.00746-3.0065-3.74429-4.7933-5.12979 2.3583.15442 4.5381.72392 6.2944 1.70142.275.15654.641.15158.8976-.06234.3327-.27483.3767-.76854.0995-1.10004-2.5217-3.51616-6.8835-5.454872-12.2852-5.454872-9.28016 0-16.8311 7.524622-16.8311 16.773322m17.2242-14.48611c-.7079-.27059-1.4087-.47955-2.0982-.62971.5537-.06163 1.1138-.09634 1.6831-.09704.2665.00354.5935.323.9368.94066-.1735-.07437-.3476-.14733-.5217-.21391m1.6965-.61271c.6354.07012 1.312.17921 2.0086.34141-.4364.23305-.8885.52559-1.3476.8755-.2047-.46041-.425-.867-.661-1.21691m2.6369 1.67025c.5373-.34638 1.0313-.58438 1.4449-.68284.7854.3138 1.5636.714 2.3021 1.22046-1.1841-.29396-2.4435-.47387-3.747-.53762m-12.70102 2.05558c.17413-.80892.6617-1.53283 1.41792-2.13067 1.8266-.544 3.9525-.41295 6.187.40234-.9403.16291-1.8799.37896-2.8081.65804-1.7271.51637-3.3561 1.22187-4.84871 2.08037-.03411-.34141-.01776-.68.05189-1.01008m-1.4684-.56667c-.02203.07934-.04477.15867-.06183.24084-.1585.73596-.14002 1.48962.04691 2.23833-1.68518 1.15742-3.15002 2.52729-4.31564 4.06579-.35608.4683-.67379.9464-.96164 1.4273.8664-3.19455 2.75414-5.97405 5.2922-7.97226m3.36682 4.97106c-.6475-.60347-1.13935-1.23389-1.47055-1.86643 1.46695-.87975 3.09035-1.59658 4.81955-2.11438 1.0284-.30812 2.0697-.53691 3.1074-.69487-1.499 1.67379-2.9958 3.80021-4.3668 6.20148-.7833-.4512-1.4869-.9626-2.0896-1.5258m6.6895 3.2513c-1.1329-.2409-2.2097-.5872-3.2012-1.0214 1.4606-2.5465 3.0583-4.76075 4.6341-6.40691.4925 1.9302.9054 4.52621 1.0796 7.74491-.8295-.0333-1.6738-.1374-2.5125-.3166m3.1038-7.14781c1.7804 1.32033 3.4116 3.02387 4.7762 5.01641.2587.3783.5025.7622.7349 1.1496-1.2516.7204-2.8323 1.1511-4.5388 1.2722-.145-2.6924-.4648-5.28276-.9723-7.43821m-15.6662 14.49891c-1.3298-1.2255-2.24453-2.5217-2.71007-3.8095.36888-1.4435 1.08318-2.8914 2.13508-4.279.99717-1.3161 2.23742-2.5011 3.66033-3.51971.41081.7395.9858 1.46131 1.71715 2.14551.69581.6496 1.50751 1.2382 2.40661 1.7532-.2474.4682-.4904.9442-.7264 1.428-1.3888 2.8361-2.52315 5.8791-3.18911 8.6409-1.23457-.6949-2.34617-1.4868-3.29359-2.3594m10.1523 4.8953c-1.9389-.4144-3.7712-1.0278-5.43012-1.8049.54442-2.4423 1.55862-5.4024 3.16712-8.6877.2331-.476.4719-.9435.7157-1.4032 1.1244.5029 2.3469.9024 3.6297 1.1751.9752.2083 1.9489.3216 2.9041.3542.0171.5851.0256 1.1886.0256 1.8105 0 3.6734-.2949 6.7235-.72 9.1056-1.4008-.0602-2.8422-.2415-4.2921-.5496m6.5772-8.556c0-.6092-.0085-1.2212-.0263-1.831 1.9467-.129 3.7506-.6333 5.2275-1.4798 1.3661 2.696 2.1003 5.5392 2.0939 8.2231-.0015.7777-.0683 1.5172-.1919 2.2149-.7037.43-1.5125.8019-2.4237 1.1079-1.6162.5419-3.4378.8379-5.3682.8875.4648-2.7738.6887-5.9932.6887-9.1226m-19.45947 4.1898c-.13362-.5072-.21749-1.0236-.2516-1.5484.5224.7409 1.15993 1.4662 1.9183 2.1646 1.145 1.0547 2.50466 1.9982 4.01996 2.8072-.30917 1.7255-.39659 3.288-.20043 4.5489-2.61198-1.9692-4.56581-4.7551-5.48623-7.9723m8.07187 9.5504c-.0461-.0375-.0959-.0729-.1513-.0998-.86999-.4222-1.2211-2.3538-.76835-5.3083 1.67025.748 3.49045 1.3409 5.40235 1.7482 1.4492.3088 2.8934.4994 4.305.573-.6923 2.9991-1.58 4.573-2.1671 4.573-.0384 0-.0739.0064-.1101.0114-2.3299-.0156-4.5374-.5497-6.5105-1.4975m10.4018-3.055c2.2111-.0269 4.3085-.3492 6.1643-.9711.4676-.1573.9126-.3301 1.3355-.5192-.516 1.258-1.2758 2.3056-2.2631 3.0862-1.9517 1.4322-4.2545 2.414-6.7542 2.7894.6262-1.0774 1.1308-2.5982 1.5175-4.3853" fill="#231f20" fill-rule="evenodd"/><g mask="url(#b)"><path d="m0 .254578h33.7603v33.6458h-33.7603z" fill="url(#a)"/></g><path clip-rule="evenodd" d="m130.578 17.6423h2.168v.1133c.048.4692-.12.935-.457 1.2658-.338.3308-.808.4906-1.278.4342-1.421 0-2.274-1.1687-2.274-3.1167 0-1.9479.81-3.145 2.232-3.145.468 0 .918.1874 1.246.5204.329.3329.51.7834.502 1.2505v.1133l1.955-.3046v-.085c-.104-1.9515-1.773-3.4508-3.732-3.3504-2.779 0-4.371 1.8204-4.371 5.0008 0 3.1805 1.642 4.9584 4.4 4.9584 2.757 0 3.745-1.9267 3.745-3.5417v-1.7212h-4.136zm18.628-6.3042c2.133 0 4.393 1.3104 4.393 5.0008 0 3.6905-2.267 4.9584-4.393 4.9584-2.125 0-4.413-1.3105-4.413-4.9584s2.281-5.0008 4.413-5.0008zm18.558.085c2.488 0 3.859 1.1971 3.859 3.3788 0 2.0541-1.35 3.2795-3.61 3.2795h-1.585v3.145h-2.097v-9.8033zm-1.336 4.9583h1.258c1.215 0 1.834-.5241 1.834-1.5725 0-1.0483-.676-1.6504-1.898-1.6504h-1.187zm-7.648 3.053c1.137 0 1.692-.7084 1.692-2.125l-.036-5.8792h2.132v5.7375c0 3.4425-2.061 4.1508-3.788 4.1508-1.023.0633-2.028-.2894-2.786-.9775-.763-.8742-1.14-2.0184-1.045-3.1733v-5.7375h2.097v5.8792c0 1.4166.597 2.125 1.734 2.125zm-7.349-3.0955c0 2.7342-1.393 3.145-2.225 3.145-1.421 0-2.246-1.1191-2.246-3.145 0-2.0258.825-3.145 2.246-3.145.804 0 2.225.4109 2.225 3.145zm-8.799 1.9196c.341.7083.647 1.3033 1.336 1.3033h.498v1.615h-.071c-.334.0712-.675.1045-1.017.0992-1.656 0-2.167-1.1333-2.615-2.125-.363-.8217-.711-1.53-1.55-1.53h-.924v3.6054h-2.132v-9.8033h3.49c2.552 0 3.738.9917 3.738 3.1167.028 1.0691-.6 2.0475-1.585 2.472.334.3685.603.7899.797 1.2467zm-3.205-2.2525h-1.173v-2.8333h1.322c1.109 0 1.741.5383 1.741 1.4167 0 .8783-.725 1.4166-1.89 1.4166zm-17.613-4.5829h2.488l-3.603 4.845 3.809 4.9583h-2.523l-3.341-4.512v4.512h-2.132v-9.8033h2.132v4.42zm-9.367 6.0563-3.44-6.0563h-2.132v9.8033h2.132v-5.8508l3.433 5.8508h2.132v-9.8033h-2.097zm-6.063 3.747-3.589-9.7395-.021-.0638h-2.083l-3.6105 9.8033h2.1962l.8103-2.4012h3.276l.846 2.4012zm-4.655-7.1329-1.066 3.0954h2.132zm-4.8546 4.3492c.047-1.1024-.6746-2.0917-1.7413-2.3871h.0355c.4762-.1629 1.0945-.6446 1.0945-1.9975 0-1.7496-1.0732-2.635-3.2054-2.635h-3.7883v9.8033h4.1508c2.1962 0 3.4542-1.0129 3.4542-2.7837zm-4.0442-3.0104c.8743 0 1.2865-.3684 1.2865-1.1546 0-.7863-.5189-1.1263-1.5423-1.1263h-1.1728v2.2809zm.2204 4.0658h-1.6418v-2.5429h1.5991c.7321 0 1.6063.2267 1.6063 1.275 0 .8642-.4975 1.2679-1.5636 1.2679zm-12.3741-8.075c3.0633 0 4.8899 1.8913 4.8899 5.0646 0 3.0104-1.6347 4.7387-4.4776 4.7387h-3.3334v-9.8033zm.398 8.075h-1.2224l-.0071-6.3467h.796c1.8906 0 2.843 1.1121 2.843 3.308 0 1.8983-.9027 3.0387-2.4095 3.0387zm-8.6284-8.075h-2.1322v9.8033h6.3967v-1.7283h-4.2645zm-3.5821 8.1387c-.6895 0-.988-.595-1.3362-1.3033h.0284c-.1939-.4568-.4629-.8782-.796-1.2467.9933-.4179 1.63-1.3978 1.6062-2.472 0-2.125-1.1869-3.1167-3.7385-3.1167h-3.5537v9.8033h2.1322v-3.6054h.9027c.8387 0 1.1869.7083 1.5494 1.53l.0609.1255c.4645.9593.9681 1.9995 2.5546 1.9995.3415.0053.6825-.028 1.0164-.0992h.0711v-1.615zm-5.6576-3.5558h1.1657c1.1656 0 1.8905-.5383 1.8905-1.4166 0-.8784-.6325-1.4167-1.7342-1.4167h-1.322zm-7.6724-4.6679h-.0036.0071zm-4.4102 5.0008c0-3.66 2.279-4.9993 4.4102-5.0008 2.1312.0015 4.3888 1.3125 4.3888 5.0008 0 3.6905-2.2673 4.9584-4.3924 4.9584s-4.4066-1.2963-4.4066-4.9584zm4.4137 3.145c.8316 0 2.2318-.4108 2.2318-3.145 0-2.7341-1.4215-3.145-2.2318-3.145-1.4215 0-2.2459 1.1192-2.2459 3.145 0 2.0259.796 3.145 2.2459 3.145zm-4.7335-8.0608h-2.3739l-1.72 7.1542-1.919-7.1542h-1.7556l-1.99 7.1542-1.649-7.1542h-2.4378l2.843 9.8033h2.3667l1.7485-6.1483 1.7129 6.1483h2.3312z" fill="#002f54" fill-rule="evenodd"/></svg>